<svg xmlns="http://www.w3.org/2000/svg" width="256" height="256" viewBox="0 0 100 100"><rect width="100" height="100" rx="20" fill="#5c1414"></rect><path d="M17.79 61.68L17.79 61.68Q16.10 61.68 14.40 61.38Q12.70 61.07 11.22 60.51Q9.73 59.95 8.67 59.18L8.67 59.18L10.56 54.93Q12.22 56.02 14.10 56.56Q15.97 57.10 17.86 57.10L17.86 57.10Q19.81 57.10 20.82 56.56Q21.82 56.02 21.82 55.09L21.82 55.09Q21.82 54.54 21.47 54.11Q21.12 53.68 20.16 53.31Q19.20 52.94 17.41 52.56L17.41 52.56Q14.94 52.08 13.33 51.42Q11.71 50.77 10.80 49.92Q9.89 49.07 9.52 48.02Q9.15 46.96 9.15 45.65L9.15 45.65Q9.15 43.57 10.34 41.90Q11.52 40.24 13.63 39.28Q15.74 38.32 18.56 38.32L18.56 38.32Q20.19 38.32 21.79 38.62Q23.39 38.93 24.75 39.49Q26.11 40.05 26.98 40.82L26.98 40.82L25.12 45.07Q23.58 43.98 21.92 43.44Q20.26 42.90 18.62 42.90L18.62 42.90Q16.99 42.90 16.00 43.52Q15.01 44.14 15.01 45.20L15.01 45.20Q15.01 45.71 15.34 46.13Q15.68 46.54 16.64 46.91Q17.60 47.28 19.55 47.70L19.55 47.70Q21.92 48.18 23.50 48.85Q25.09 49.52 26.00 50.37Q26.91 51.22 27.30 52.26Q27.68 53.30 27.68 54.54L27.68 54.54Q27.68 56.75 26.53 58.35Q25.38 59.95 23.17 60.82Q20.96 61.68 17.79 61.68ZM39.30 61.68L39.30 61.68Q37.60 61.68 35.90 61.38Q34.21 61.07 32.72 60.51Q31.23 59.95 30.18 59.18L30.18 59.18L32.06 54.93Q33.73 56.02 35.60 56.56Q37.47 57.10 39.36 57.10L39.36 57.10Q41.31 57.10 42.32 56.56Q43.33 56.02 43.33 55.09L43.33 55.09Q43.33 54.54 42.98 54.11Q42.62 53.68 41.66 53.31Q40.70 52.94 38.91 52.56L38.91 52.56Q36.45 52.08 34.83 51.42Q33.22 50.77 32.30 49.92Q31.39 49.07 31.02 48.02Q30.66 46.96 30.66 45.65L30.66 45.65Q30.66 43.57 31.84 41.90Q33.02 40.24 35.14 39.28Q37.25 38.32 40.06 38.32L40.06 38.32Q41.70 38.32 43.30 38.62Q44.90 38.93 46.26 39.49Q47.62 40.05 48.48 40.82L48.48 40.82L46.62 45.07Q45.09 43.98 43.42 43.44Q41.76 42.90 40.13 42.90L40.13 42.90Q38.50 42.90 37.50 43.52Q36.51 44.14 36.51 45.20L36.51 45.20Q36.51 45.71 36.85 46.13Q37.18 46.54 38.14 46.91Q39.10 47.28 41.06 47.70L41.06 47.70Q43.42 48.18 45.01 48.85Q46.59 49.52 47.50 50.37Q48.42 51.22 48.80 52.26Q49.18 53.30 49.18 54.54L49.18 54.54Q49.18 56.75 48.03 58.35Q46.88 59.95 44.67 60.82Q42.46 61.68 39.30 61.68ZM58.56 61.39L52.54 61.39L52.54 38.61L63.39 38.61Q67.36 38.61 69.47 40.50Q71.58 42.38 71.58 45.55L71.58 45.55Q71.58 48.72 69.44 50.61Q67.30 52.50 63.39 52.50L63.39 52.50L58.56 52.50L58.56 61.39ZM58.56 43.15L58.56 48.02L62.59 48.02Q64.35 48.02 65.17 47.39Q65.98 46.77 65.98 45.62L65.98 45.62Q65.98 44.40 65.18 43.78Q64.38 43.15 62.59 43.15L62.59 43.15L58.56 43.15ZM87.52 47.34L72.74 55.82L72.74 50.80L87.52 42.26L87.52 47.34ZM91.33 61.39L75.65 61.39L75.65 38.61L81.66 38.61L81.66 56.53L91.33 56.53L91.33 61.39Z" fill="#fff"></path></svg>